<?xml version="1.0" encoding="utf-8"?>
<svg width="120" height="120" viewBox="0 0 120 120" fill="none" xmlns="http://www.w3.org/2000/svg">
  <path fill-rule="evenodd" clip-rule="evenodd" d="M 60 120 C 93.137 120 120 93.137 120 60 C 120 26.863 93.137 0 60 0 C 26.863 0 0 26.863 0 60 C 0 93.137 26.863 120 60 120 Z" fill="#DE5833"/>
  <path fill-rule="evenodd" clip-rule="evenodd" d="M 68.438 104.766 C 68.438 104.297 68.553 104.19 67.063 101.22 C 63.103 93.29 59.123 82.11 60.933 74.9 C 61.263 73.59 57.203 26.39 54.333 24.87 C 51.143 23.17 47.218 20.473 43.628 19.873 C 41.806 19.582 39.418 19.72 37.551 19.971 C 37.219 20.016 37.205 20.612 37.522 20.72 C 38.748 21.135 40.237 21.856 41.114 22.946 C 41.28 23.152 41.057 23.477 40.792 23.487 C 39.965 23.518 38.466 23.864 36.487 25.545 C 36.258 25.739 36.448 26.1 36.742 26.042 C 40.995 25.201 45.339 25.615 47.899 27.942 C 48.065 28.093 47.978 28.364 47.761 28.423 C 25.548 34.459 29.945 53.782 35.859 77.495 C 41.107 98.542 43.094 105.376 43.726 107.476 C 43.791 107.691 43.942 107.862 44.15 107.944 C 51.806 110.981 68.438 111.112 68.438 105.938 L 68.438 104.766 Z" fill="#DDDDDD"/>
  <path fill-rule="evenodd" clip-rule="evenodd" d="M 115.078 60 C 115.078 90.419 90.419 115.078 60 115.078 C 29.581 115.078 4.922 90.419 4.922 60 C 4.922 29.581 29.581 4.922 60 4.922 C 90.419 4.922 115.078 29.581 115.078 60 Z M 47.146 108.736 C 45.624 104.035 41.371 90.408 37.169 73.186 C 37.029 72.612 36.89 72.041 36.75 71.473 L 36.747 71.459 C 31.662 50.687 27.508 33.722 50.272 28.392 C 50.481 28.344 50.582 28.095 50.445 27.931 C 47.833 24.833 42.94 23.817 36.753 25.951 C 36.499 26.039 36.279 25.783 36.436 25.566 C 37.65 23.894 40.02 22.608 41.191 22.044 C 41.433 21.928 41.418 21.573 41.162 21.493 C 40.396 21.254 39.093 20.887 37.626 20.65 C 37.279 20.594 37.248 20 37.596 19.953 C 46.367 18.773 55.527 21.406 60.123 27.196 C 60.166 27.25 60.229 27.288 60.297 27.303 C 77.127 30.917 78.332 57.523 76.394 58.735 C 76.011 58.974 74.786 58.837 73.17 58.656 C 66.622 57.923 53.654 56.472 64.356 76.419 C 64.462 76.616 64.322 76.877 64.101 76.911 C 58.086 77.847 65.747 96.631 71.425 109.09 C 93.752 103.914 110.391 83.9 110.391 60 C 110.391 32.17 87.83 9.609 60 9.609 C 32.17 9.609 9.609 32.17 9.609 60 C 9.609 83.388 25.542 103.054 47.146 108.736 Z" fill="white"/>
  <path d="M 79.013 85.029 C 77.731 84.436 72.805 87.969 69.535 90.681 C 68.851 89.714 67.563 89.011 64.656 89.517 C 62.113 89.959 60.708 90.572 60.082 91.63 C 56.066 90.107 49.311 87.758 47.68 90.027 C 45.896 92.507 48.125 104.24 50.495 105.763 C 51.732 106.559 57.648 102.756 60.738 100.133 C 61.237 100.835 62.039 101.237 63.689 101.199 C 66.184 101.141 70.231 100.561 70.859 99.399 C 70.898 99.328 70.93 99.245 70.958 99.149 C 74.134 100.336 79.723 101.593 80.972 101.405 C 84.226 100.916 80.519 85.727 79.013 85.029 Z" fill="#3CA82B"/>
  <path d="M 69.835 91.028 C 69.97 91.268 70.078 91.522 70.17 91.779 C 70.623 93.045 71.36 97.074 70.803 98.068 C 70.245 99.063 66.622 99.544 64.387 99.582 C 62.152 99.621 61.649 98.804 61.196 97.537 C 60.834 96.525 60.656 94.143 60.66 92.779 C 60.568 90.757 61.307 90.046 64.723 89.493 C 67.251 89.084 68.587 89.56 69.359 90.374 C 72.947 87.695 78.935 83.916 79.519 84.606 C 82.431 88.051 82.799 96.251 82.168 99.55 C 81.962 100.628 72.32 98.481 72.32 97.318 C 72.32 92.488 71.067 91.164 69.835 91.028 Z" fill="#4CBA3C"/>
  <path d="M 48.713 89.52 C 49.503 88.27 55.907 89.824 59.422 91.389 C 59.422 91.389 58.7 94.662 59.85 98.517 C 60.187 99.645 51.762 104.665 50.663 103.802 C 49.392 102.803 47.053 92.147 48.713 89.52 Z" fill="#4CBA3C"/>
  <path fill-rule="evenodd" clip-rule="evenodd" d="M 51.815 64.131 C 52.333 61.878 54.746 57.632 63.366 57.735 C 67.723 57.717 73.136 57.734 76.724 57.326 C 82.058 56.72 86.017 55.43 88.655 54.424 C 92.386 53.001 93.71 53.318 94.175 54.17 C 94.685 55.106 94.084 56.722 92.78 58.21 C 90.29 61.051 85.813 63.253 77.907 63.906 C 70 64.56 64.762 62.439 62.507 65.892 C 61.535 67.381 62.287 70.891 69.933 71.996 C 80.265 73.487 88.751 70.199 89.799 72.185 C 90.847 74.171 84.808 78.211 74.459 78.296 C 64.11 78.38 57.646 74.672 55.354 72.829 C 52.445 70.491 51.144 67.08 51.815 64.131 Z" fill="#FFCC33"/>
  <g opacity="0.8" transform="matrix(1, 0, 0, 1, -43, 0)">
    <path d="M107.994 39.4941C108.571 38.5489 109.851 37.8193 111.946 37.8193C114.041 37.8193 115.027 38.6529 115.709 39.5824C115.848 39.7715 115.637 39.994 115.422 39.901C115.37 39.8786 115.318 39.8557 115.265 39.8324C114.498 39.4978 113.558 39.087 111.946 39.0641C110.223 39.0395 109.136 39.4712 108.451 39.8433C108.221 39.9686 107.857 39.7181 107.994 39.4941Z" fill="#14307E"/>
    <path d="M84.4102 40.7034C86.4443 39.8533 88.0429 39.9632 89.1731 40.2306C89.4111 40.2868 89.5765 40.0308 89.3861 39.8773C88.5089 39.1697 86.5457 38.2914 83.9852 39.2461C81.7011 40.0978 80.6245 41.8674 80.6182 43.0309C80.6167 43.305 81.1808 43.3283 81.3267 43.0962C81.7209 42.4691 82.3762 41.5534 84.4102 40.7034Z" fill="#14307E"/>
    <path fill-rule="evenodd" clip-rule="evenodd" d="M113.726 52.4248C111.927 52.4248 110.469 50.9702 110.469 49.1799C110.469 47.3896 111.927 45.935 113.726 45.935C115.524 45.935 116.982 47.3896 116.982 49.1799C116.982 50.9702 115.524 52.4248 113.726 52.4248ZM116.019 48.1049C116.019 47.6413 115.64 47.2657 115.176 47.2657C114.713 47.2657 114.337 47.6413 114.333 48.1049C114.333 48.5685 114.713 48.9441 115.176 48.9441C115.644 48.9441 116.019 48.5685 116.019 48.1049Z" fill="#14307E"/>
    <path fill-rule="evenodd" clip-rule="evenodd" d="M92.147 51.4256C92.147 53.5156 90.4486 55.21 88.3506 55.21C86.2567 55.21 84.5543 53.5156 84.5543 51.4256C84.5543 49.3356 86.2567 47.6412 88.3506 47.6412C90.4446 47.6412 92.147 49.3356 92.147 51.4256ZM91.0281 50.1708C91.0281 49.6313 90.5885 49.1917 90.045 49.1917C89.5055 49.1917 89.066 49.6273 89.062 50.1708C89.062 50.7103 89.5015 51.1499 90.045 51.1499C90.5885 51.1499 91.0281 50.7103 91.0281 50.1708Z" fill="#14307E"/>
  </g>
</svg>